<svg width="16" height="16" viewBox="0 0 16 16" fill="none" xmlns="http://www.w3.org/2000/svg">
<g clip-path="url(#clip0_111_37943)">
<path d="M15.991 3.456C15.988 3.422 15.981 3.39 15.971 3.357C15.961 3.324 15.949 3.294 15.933 3.264C15.926 3.251 15.925 3.235 15.916 3.222L13.916 0.222C13.823 0.084 13.667 0 13.5 0H2.5C2.333 0 2.177 0.084 2.084 0.223L0.084 3.223C0.075 3.236 0.074 3.251 0.067 3.265C0.051 3.295 0.039 3.325 0.029 3.358C0.019 3.391 0.012 3.423 0.009 3.457C0.007 3.471 0 3.484 0 3.5V15C0 15.552 0.449 16 1 16H15C15.551 16 16 15.552 16 15V3.5C16 3.484 15.993 3.471 15.991 3.456ZM13.232 1L14.566 3H9.924L9.59 1H13.232ZM7.423 1H8.576L8.91 3H7.09L7.423 1ZM7 4H9V5.807L8.158 5.525C8.055 5.492 7.944 5.492 7.842 5.525L7 5.807V4ZM2.768 1H6.41L6.076 3H1.434L2.768 1ZM15 15.5V15H1V4H6V6.5C6 6.661 6.077 6.812 6.208 6.905C6.338 7 6.505 7.022 6.658 6.975L8 6.527L9.342 6.974C9.394 6.991 9.447 7 9.5 7C9.604 7 9.706 6.968 9.792 6.905C9.923 6.812 10 6.661 10 6.5V4H15V15C15 15 15 15 15.001 15L15 15.5Z" fill="black"/>
<path d="M5.49995 11H2.49995C2.22395 11 1.99995 11.224 1.99995 11.5C1.99995 11.776 2.22395 12 2.49995 12H5.49995C5.77595 12 5.99995 11.776 5.99995 11.5C5.99995 11.224 5.77595 11 5.49995 11Z" fill="black"/>
<path d="M3.99995 13H2.49995C2.22395 13 1.99995 13.224 1.99995 13.5C1.99995 13.776 2.22395 14 2.49995 14H3.99995C4.27595 14 4.49995 13.776 4.49995 13.5C4.49995 13.224 4.27595 13 3.99995 13Z" fill="black"/>
</g>
<defs>
<clipPath id="clip0_111_37943">
<rect width="16" height="16" fill="white"/>
</clipPath>
</defs>
</svg>
