<svg width="17" height="16" viewBox="0 0 17 16" fill="none" xmlns="http://www.w3.org/2000/svg">
<path d="M16.5108 12.4323L15.5815 9.7278C16.0294 8.81211 16.2661 7.79373 16.2677 6.76908C16.2705 4.98742 15.5812 3.30282 14.3267 2.02563C13.072 0.748188 11.4001 0.029093 9.61885 0.000874186C7.77182 -0.0283134 6.03569 0.674251 4.73047 1.97944C3.4719 3.23797 2.77384 4.89713 2.75174 6.67014C1.5113 7.60408 0.779145 9.06017 0.781551 10.6155C0.782708 11.3433 0.94652 12.0667 1.25693 12.721L0.616832 14.5837C0.506801 14.9039 0.587176 15.2516 0.826614 15.4911C0.995114 15.6596 1.21727 15.7493 1.44574 15.7493C1.54187 15.7493 1.63912 15.7334 1.73396 15.7008L3.59674 15.0607C4.25096 15.3712 4.97443 15.535 5.70225 15.5361C5.70487 15.5361 5.70737 15.5361 5.71 15.5361C7.28844 15.5361 8.75563 14.785 9.68616 13.5142C10.6545 13.4887 11.6126 13.2543 12.4788 12.8306L15.1833 13.7599C15.296 13.7986 15.4115 13.8175 15.5257 13.8175C15.7972 13.8175 16.0612 13.7108 16.2615 13.5105C16.546 13.226 16.6415 12.8128 16.5108 12.4323ZM5.70994 14.5837C5.70791 14.5837 5.70575 14.5837 5.70372 14.5837C5.05953 14.5828 4.41981 14.424 3.85384 14.1245C3.73746 14.063 3.60084 14.0523 3.4764 14.0951L1.5663 14.7514L2.22265 12.8414C2.2654 12.7169 2.25477 12.5803 2.19321 12.4639C1.89377 11.8979 1.73496 11.2582 1.73396 10.614C1.73237 9.5778 2.13546 8.59564 2.84037 7.8602C3.07062 9.26383 3.73959 10.5573 4.77653 11.5758C5.80581 12.5867 7.09963 13.2304 8.49563 13.4409C7.7585 14.1674 6.76488 14.5837 5.70994 14.5837ZM15.588 12.8371C15.5609 12.8642 15.5288 12.8716 15.4927 12.8591L12.5974 11.8642C12.5471 11.847 12.4948 11.8384 12.4427 11.8384C12.3659 11.8384 12.2893 11.857 12.22 11.8937C11.3934 12.331 10.4592 12.5629 9.51854 12.5644C9.51544 12.5644 9.51263 12.5644 9.50954 12.5644C6.35756 12.5644 3.75403 10.0039 3.70409 6.8527C3.67893 5.26567 4.28262 3.77413 5.4039 2.65285C6.52519 1.53156 8.01697 0.928095 9.60379 0.953095C12.758 1.00313 15.3202 3.61147 15.3154 6.76758C15.3139 7.70826 15.082 8.64242 14.6447 9.46902C14.5831 9.58536 14.5725 9.72199 14.6153 9.84646L15.6101 12.7417C15.6225 12.778 15.6151 12.8101 15.588 12.8371Z" fill="url(#paint0_linear_111_37905)"/>
<path d="M12.3462 4.23447H6.6724C6.4094 4.23447 6.19621 4.44769 6.19621 4.71065C6.19621 4.97366 6.40943 5.18684 6.6724 5.18684H12.3462C12.6092 5.18684 12.8223 4.97362 12.8223 4.71065C12.8223 4.44769 12.6092 4.23447 12.3462 4.23447Z" fill="url(#paint1_linear_111_37905)"/>
<path d="M12.3462 6.19292H6.6724C6.4094 6.19292 6.19621 6.40614 6.19621 6.6691C6.19621 6.93207 6.40943 7.14529 6.6724 7.14529H12.3462C12.6092 7.14529 12.8223 6.93207 12.8223 6.6691C12.8223 6.40614 12.6092 6.19292 12.3462 6.19292Z" fill="url(#paint2_linear_111_37905)"/>
<path d="M10.1623 8.15146H6.67253C6.40953 8.15146 6.19634 8.36468 6.19634 8.62765C6.19634 8.89065 6.40956 9.10383 6.67253 9.10383H10.1623C10.4253 9.10383 10.6385 8.89061 10.6385 8.62765C10.6385 8.36468 10.4253 8.15146 10.1623 8.15146Z" fill="url(#paint3_linear_111_37905)"/>
<defs>
<linearGradient id="paint0_linear_111_37905" x1="-8.33165" y1="-10.937" x2="19.5923" y2="-7.56646" gradientUnits="userSpaceOnUse">
<stop stop-color="#F64D4D"/>
<stop offset="1" stop-color="#4D5EF6"/>
</linearGradient>
<linearGradient id="paint1_linear_111_37905" x1="-8.33165" y1="-10.937" x2="19.5923" y2="-7.56646" gradientUnits="userSpaceOnUse">
<stop stop-color="#F64D4D"/>
<stop offset="1" stop-color="#4D5EF6"/>
</linearGradient>
<linearGradient id="paint2_linear_111_37905" x1="-8.33165" y1="-10.937" x2="19.5923" y2="-7.56646" gradientUnits="userSpaceOnUse">
<stop stop-color="#F64D4D"/>
<stop offset="1" stop-color="#4D5EF6"/>
</linearGradient>
<linearGradient id="paint3_linear_111_37905" x1="-8.33165" y1="-10.937" x2="19.5923" y2="-7.56646" gradientUnits="userSpaceOnUse">
<stop stop-color="#F64D4D"/>
<stop offset="1" stop-color="#4D5EF6"/>
</linearGradient>
</defs>
</svg>
