<svg width="16" height="16" viewBox="0 0 16 16" fill="none" xmlns="http://www.w3.org/2000/svg">
<path fill-rule="evenodd" clip-rule="evenodd" d="M0 3.02678C0 2.45971 0.459706 2 1.02678 2H14.9732C15.5403 2 16 2.45971 16 3.02678V12.3819C16 12.949 15.5403 13.4087 14.9732 13.4087H1.02678C0.459708 13.4087 0 12.949 0 12.3819V3.02678ZM1.02678 2.9127H14.9732C15.0362 2.9127 15.0873 2.96378 15.0873 3.02678V5.19443H0.912696V3.02678C0.912696 2.96377 0.963774 2.9127 1.02678 2.9127ZM0.912696 7.59026V12.3819C0.912696 12.4449 0.963774 12.496 1.02678 12.496H14.9732C15.0362 12.496 15.0873 12.4449 15.0873 12.3819V7.59026H0.912696Z" fill="black"/>
</svg>
