<svg width="27" height="26" viewBox="0 0 27 26" fill="none" xmlns="http://www.w3.org/2000/svg">
<g clip-path="url(#clip0_111_11113)">
<path d="M26.4231 24.5855L19.5359 17.98C21.3395 16.0701 22.4476 13.5443 22.4476 10.7649C22.4467 4.81923 17.4223 0 11.2238 0C5.02532 0 0.000854492 4.81923 0.000854492 10.7649C0.000854492 16.7106 5.02532 21.5298 11.2238 21.5298C13.902 21.5298 16.3583 20.6269 18.2878 19.1258L25.2016 25.7574C25.5385 26.0809 26.0854 26.0809 26.4223 25.7574C26.76 25.434 26.76 24.909 26.4231 24.5855ZM11.2238 19.8735C5.97921 19.8735 1.72766 15.7955 1.72766 10.7649C1.72766 5.73431 5.97921 1.65624 11.2238 1.65624C16.4684 1.65624 20.7199 5.73431 20.7199 10.7649C20.7199 15.7955 16.4684 19.8735 11.2238 19.8735Z" fill="black"/>
</g>
<defs>
<clipPath id="clip0_111_11113">
<rect width="27" height="26" fill="white"/>
</clipPath>
</defs>
</svg>
