<svg width="16" height="16" viewBox="0 0 16 16" fill="none" xmlns="http://www.w3.org/2000/svg">
<g clip-path="url(#clip0_111_37953)">
<path d="M14.4108 1.90259L8.13475 0.0197813C8.04697 -0.00659375 7.95325 -0.00659375 7.86538 0.0197813L1.58931 1.90259C1.39103 1.96206 1.25525 2.14456 1.25525 2.35156V9.25519C1.25525 10.1531 1.61875 11.0723 2.33566 11.9872C2.88322 12.686 3.64072 13.3876 4.58716 14.0727C6.17706 15.2236 7.74262 15.9296 7.8085 15.9591C7.86944 15.9863 7.93472 16 8.00003 16C8.06531 16 8.13063 15.9864 8.19156 15.9591C8.25744 15.9296 9.82297 15.2236 11.4129 14.0727C12.3593 13.3876 13.1168 12.686 13.6643 11.9872C14.3813 11.0723 14.7448 10.1532 14.7448 9.25519V2.35156C14.7448 2.14456 14.609 1.96206 14.4108 1.90259ZM13.8073 9.25519C13.8073 10.8443 12.2128 12.3344 10.8752 13.3046C9.67603 14.1744 8.45988 14.7916 8.00006 15.0133C7.54025 14.7916 6.32406 14.1744 5.12487 13.3046C3.78725 12.3344 2.19275 10.8443 2.19275 9.25519V2.70031L8.00003 0.958125L13.8073 2.70031V9.25519Z" fill="black"/>
<path d="M10.4518 5.97487L7.84543 8.51969L6.52191 7.2278C6.3662 7.07545 6.11683 7.07731 5.96312 7.23165C5.80952 7.38611 5.8089 7.63548 5.96188 7.79056L5.96721 7.79577L7.5679 9.35874C7.72223 9.50936 7.9685 9.50936 8.12272 9.35874L11.0064 6.54321C11.1623 6.38987 11.1648 6.13938 11.0122 5.98293C10.8593 5.82649 10.609 5.82301 10.4518 5.97512V5.97487Z" fill="black"/>
</g>
<defs>
<clipPath id="clip0_111_37953">
<rect width="16" height="16" fill="white"/>
</clipPath>
</defs>
</svg>
