<svg width="17" height="16" viewBox="0 0 17 16" fill="none" xmlns="http://www.w3.org/2000/svg">
<g clip-path="url(#clip0_111_37899)">
<path d="M8.25882 2.13965L9.97805 5.88864L13.9359 6.43151L11.0406 9.29139L11.7675 13.3759L8.25882 11.3944L4.75018 13.3759L5.47704 9.29139L2.58173 6.43151L6.53959 5.88864L8.25882 2.13965Z" fill="url(#paint0_linear_111_37899)"/>
<path d="M15.6665 6.24459C15.9419 5.96266 15.7828 5.48738 15.3932 5.42794L10.7603 4.72112L8.69675 0.329432C8.52248 -0.0414517 7.99493 -0.0414509 7.82066 0.329432L5.75707 4.72112L1.1241 5.42795C0.734512 5.48739 0.575486 5.96264 0.85084 6.24458L4.21787 9.69214L3.42549 14.547C3.36042 14.9457 3.78353 15.2439 4.13714 15.0487L8.25871 12.7726L12.3802 15.0486C12.7338 15.2439 13.1569 14.9456 13.0918 14.5469L12.299 9.69212L15.6665 6.24459ZM8.25871 11.6029L4.5133 13.7027L5.22819 9.46575L2.0036 6.1741L6.36507 5.60691L8.25871 1.57113L10.1352 5.60694L14.4821 6.22353L11.2892 9.48139L11.9567 13.7184L8.25871 11.6029Z" fill="black"/>
</g>
<defs>
<linearGradient id="paint0_linear_111_37899" x1="-3.73404" y1="-5.6633" x2="16.0849" y2="-3.28383" gradientUnits="userSpaceOnUse">
<stop stop-color="#F64D4D"/>
<stop offset="1" stop-color="#4D5EF6"/>
</linearGradient>
<clipPath id="clip0_111_37899">
<rect width="16" height="16" fill="white" transform="translate(0.5)"/>
</clipPath>
</defs>
</svg>
