<svg width="120" height="16" viewBox="0 0 120 16" fill="none" xmlns="http://www.w3.org/2000/svg">
<g clip-path="url(#clip0_111_38110)">
<path d="M7.75882 2.13965L9.47805 5.88864L13.4359 6.43151L10.5406 9.29139L11.2675 13.3759L7.75882 11.3944L4.25018 13.3759L4.97704 9.29139L2.08173 6.43151L6.03959 5.88864L7.75882 2.13965Z" fill="url(#paint0_linear_111_38110)"/>
<path d="M15.1665 6.2441C15.4419 5.96217 15.2828 5.48689 14.8932 5.42745L10.2603 4.72063L8.19675 0.328943C8.02248 -0.0419399 7.49493 -0.0419392 7.32066 0.328944L5.25707 4.72063L0.624099 5.42746C0.234512 5.4869 0.0754861 5.96215 0.35084 6.24409L3.71787 9.69165L2.92549 14.5465C2.86042 14.9452 3.28353 15.2435 3.63714 15.0482L7.75871 12.7721L11.8802 15.0481C12.2338 15.2434 12.6569 14.9451 12.5918 14.5464L11.799 9.69163L15.1665 6.2441ZM7.75871 11.6024L4.0133 13.7022L4.72819 9.46526L1.5036 6.17361L5.86507 5.60642L7.75871 1.57064L9.63521 5.60645L13.9821 6.22304L10.7892 9.4809L11.4567 13.7179L7.75871 11.6024Z" fill="black"/>
</g>
<g clip-path="url(#clip1_111_38110)">
<path d="M33.7588 2.13965L35.4781 5.88864L39.4359 6.43151L36.5406 9.29139L37.2675 13.3759L33.7588 11.3944L30.2502 13.3759L30.977 9.29139L28.0817 6.43151L32.0396 5.88864L33.7588 2.13965Z" fill="url(#paint1_linear_111_38110)"/>
<path d="M41.1665 6.2441C41.4419 5.96217 41.2828 5.48689 40.8932 5.42745L36.2603 4.72063L34.1968 0.328943C34.0225 -0.0419399 33.4949 -0.0419392 33.3207 0.328944L31.2571 4.72063L26.6241 5.42746C26.2345 5.4869 26.0755 5.96215 26.3508 6.24409L29.7179 9.69165L28.9255 14.5465C28.8604 14.9452 29.2835 15.2435 29.6371 15.0482L33.7587 12.7721L37.8802 15.0481C38.2338 15.2434 38.6569 14.9451 38.5918 14.5464L37.799 9.69163L41.1665 6.2441ZM33.7587 11.6024L30.0133 13.7022L30.7282 9.46526L27.5036 6.17361L31.8651 5.60642L33.7587 1.57064L35.6352 5.60645L39.9821 6.22304L36.7892 9.4809L37.4567 13.7179L33.7587 11.6024Z" fill="black"/>
</g>
<g clip-path="url(#clip2_111_38110)">
<path d="M59.7588 2.13965L61.4781 5.88864L65.4359 6.43151L62.5406 9.29139L63.2675 13.3759L59.7588 11.3944L56.2502 13.3759L56.977 9.29139L54.0817 6.43151L58.0396 5.88864L59.7588 2.13965Z" fill="url(#paint2_linear_111_38110)"/>
<path d="M67.1665 6.2441C67.4419 5.96217 67.2828 5.48689 66.8932 5.42745L62.2603 4.72063L60.1968 0.328943C60.0225 -0.0419399 59.4949 -0.0419392 59.3207 0.328944L57.2571 4.72063L52.6241 5.42746C52.2345 5.4869 52.0755 5.96215 52.3508 6.24409L55.7179 9.69165L54.9255 14.5465C54.8604 14.9452 55.2835 15.2435 55.6371 15.0482L59.7587 12.7721L63.8802 15.0481C64.2338 15.2434 64.6569 14.9451 64.5918 14.5464L63.799 9.69163L67.1665 6.2441ZM59.7587 11.6024L56.0133 13.7022L56.7282 9.46526L53.5036 6.17361L57.8651 5.60642L59.7587 1.57064L61.6352 5.60645L65.9821 6.22304L62.7892 9.4809L63.4567 13.7179L59.7587 11.6024Z" fill="black"/>
</g>
<g clip-path="url(#clip3_111_38110)">
<path d="M85.7588 2.13965L87.4781 5.88864L91.4359 6.43151L88.5406 9.29139L89.2675 13.3759L85.7588 11.3944L82.2502 13.3759L82.977 9.29139L80.0817 6.43151L84.0396 5.88864L85.7588 2.13965Z" fill="url(#paint3_linear_111_38110)"/>
<path d="M93.1665 6.2441C93.4419 5.96217 93.2828 5.48689 92.8932 5.42745L88.2603 4.72063L86.1968 0.328943C86.0225 -0.0419399 85.4949 -0.0419392 85.3207 0.328944L83.2571 4.72063L78.6241 5.42746C78.2345 5.4869 78.0755 5.96215 78.3508 6.24409L81.7179 9.69165L80.9255 14.5465C80.8604 14.9452 81.2835 15.2435 81.6371 15.0482L85.7587 12.7721L89.8802 15.0481C90.2338 15.2434 90.6569 14.9451 90.5918 14.5464L89.799 9.69163L93.1665 6.2441ZM85.7587 11.6024L82.0133 13.7022L82.7282 9.46526L79.5036 6.17361L83.8651 5.60642L85.7587 1.57064L87.6352 5.60645L91.9821 6.22304L88.7892 9.4809L89.4567 13.7179L85.7587 11.6024Z" fill="black"/>
</g>
<g clip-path="url(#clip4_111_38110)">
<path d="M119.166 6.2441C119.442 5.96217 119.283 5.48689 118.893 5.42745L114.26 4.72063L112.197 0.328943C112.022 -0.0419399 111.495 -0.0419392 111.321 0.328944L109.257 4.72063L104.624 5.42746C104.235 5.4869 104.075 5.96215 104.351 6.24409L107.718 9.69165L106.925 14.5465C106.86 14.9452 107.284 15.2435 107.637 15.0482L111.759 12.7721L115.88 15.0481C116.234 15.2434 116.657 14.9451 116.592 14.5464L115.799 9.69163L119.166 6.2441ZM111.759 11.6024L108.013 13.7022L108.728 9.46526L105.504 6.17361L109.865 5.60642L111.759 1.57064L113.635 5.60645L117.982 6.22304L114.789 9.4809L115.457 13.7179L111.759 11.6024Z" fill="black"/>
</g>
<defs>
<linearGradient id="paint0_linear_111_38110" x1="-4.23404" y1="-5.6633" x2="15.5849" y2="-3.28383" gradientUnits="userSpaceOnUse">
<stop stop-color="#F64D4D"/>
<stop offset="1" stop-color="#4D5EF6"/>
</linearGradient>
<linearGradient id="paint1_linear_111_38110" x1="21.766" y1="-5.6633" x2="41.5849" y2="-3.28383" gradientUnits="userSpaceOnUse">
<stop stop-color="#F64D4D"/>
<stop offset="1" stop-color="#4D5EF6"/>
</linearGradient>
<linearGradient id="paint2_linear_111_38110" x1="47.766" y1="-5.6633" x2="67.5849" y2="-3.28383" gradientUnits="userSpaceOnUse">
<stop stop-color="#F64D4D"/>
<stop offset="1" stop-color="#4D5EF6"/>
</linearGradient>
<linearGradient id="paint3_linear_111_38110" x1="73.766" y1="-5.6633" x2="93.5849" y2="-3.28383" gradientUnits="userSpaceOnUse">
<stop stop-color="#F64D4D"/>
<stop offset="1" stop-color="#4D5EF6"/>
</linearGradient>
<clipPath id="clip0_111_38110">
<rect width="16" height="16" fill="white"/>
</clipPath>
<clipPath id="clip1_111_38110">
<rect width="16" height="16" fill="white" transform="translate(26)"/>
</clipPath>
<clipPath id="clip2_111_38110">
<rect width="16" height="16" fill="white" transform="translate(52)"/>
</clipPath>
<clipPath id="clip3_111_38110">
<rect width="16" height="16" fill="white" transform="translate(78)"/>
</clipPath>
<clipPath id="clip4_111_38110">
<rect width="16" height="16" fill="white" transform="translate(104)"/>
</clipPath>
</defs>
</svg>
